<svg xmlns="http://www.w3.org/2000/svg" xmlns:xlink="http://www.w3.org/1999/xlink" width="500" zoomAndPan="magnify" viewBox="0 0 375 374.999991" height="500" preserveAspectRatio="xMidYMid meet" version="1.0"><defs><clipPath id="9631a2916e"><path d="M 0 0.242188 L 375 0.242188 L 375 374.710938 L 0 374.710938 Z M 0 0.242188 " clip-rule="nonzero"/></clipPath><clipPath id="b7909bb2a2"><path d="M 0.242188 170.433594 L 289.855469 170.433594 L 289.855469 375 L 0.242188 375 Z M 0.242188 170.433594 " clip-rule="nonzero"/></clipPath></defs><g clip-path="url(#9631a2916e)"><path fill="#008037" d="M 375.007812 187.503906 C 375.007812 191.929688 374.90625 196.339844 374.699219 200.730469 C 371.609375 266.023438 345.679688 327.097656 300.738281 374.699219 L 250.679688 374.699219 C 305.8125 330.875 341.226562 263.246094 341.226562 187.503906 C 341.226562 149.777344 310.535156 119.085938 272.816406 119.085938 C 235.089844 119.085938 204.394531 149.777344 204.394531 187.503906 C 204.394531 243.855469 158.554688 289.707031 102.195312 289.707031 C 48.546875 289.707031 4.425781 248.15625 0.3125 195.546875 C 0.109375 192.894531 0 190.207031 0 187.503906 C 0 183.078125 0.101562 178.671875 0.3125 174.277344 C 3.402344 108.984375 29.332031 47.914062 74.273438 0.3125 L 124.332031 0.3125 C 69.195312 44.136719 33.785156 111.761719 33.785156 187.503906 C 33.785156 225.234375 64.476562 255.925781 102.195312 255.925781 C 139.921875 255.925781 170.613281 225.234375 170.613281 187.503906 C 170.613281 131.15625 216.457031 85.304688 272.816406 85.304688 C 326.464844 85.304688 370.585938 126.855469 374.699219 179.464844 C 374.902344 182.117188 375.007812 184.800781 375.007812 187.503906 " fill-opacity="1" fill-rule="nonzero"/></g><g clip-path="url(#b7909bb2a2)"><path fill="#008037" d="M 289.707031 187.503906 C 289.707031 237.632812 270.214844 284.722656 234.808594 320.121094 C 202 352.933594 159.128906 372.078125 113.105469 374.699219 C 109.484375 374.90625 105.851562 375.007812 102.195312 375.007812 C 98.535156 375.007812 94.90625 374.90625 91.28125 374.699219 C 58.535156 372.839844 27.390625 362.605469 0.3125 345.035156 L 0.3125 302.519531 C 27.457031 326.597656 63.148438 341.226562 102.195312 341.226562 C 186.964844 341.226562 255.925781 272.265625 255.925781 187.503906 C 255.925781 178.171875 263.484375 170.613281 272.816406 170.613281 C 282.140625 170.613281 289.707031 178.171875 289.707031 187.503906 " fill-opacity="1" fill-rule="nonzero"/></g><path fill="#008037" d="M 374.699219 29.972656 L 374.699219 72.492188 C 347.554688 48.410156 311.859375 33.785156 272.816406 33.785156 C 188.046875 33.785156 119.085938 102.742188 119.085938 187.503906 C 119.085938 196.835938 111.527344 204.394531 102.195312 204.394531 C 92.871094 204.394531 85.300781 196.835938 85.300781 187.503906 C 85.300781 137.378906 104.796875 90.285156 140.199219 54.890625 C 173.011719 22.078125 215.882812 2.929688 261.90625 0.3125 C 265.527344 0.101562 269.15625 0 272.816406 0 C 276.472656 0 280.105469 0.101562 283.726562 0.3125 C 316.472656 2.171875 347.621094 12.40625 374.699219 29.972656 " fill-opacity="1" fill-rule="nonzero"/></svg>
