<svg xmlns="http://www.w3.org/2000/svg" xmlns:xlink="http://www.w3.org/1999/xlink" width="140" zoomAndPan="magnify" viewBox="0 0 104.88 30.000001" height="40" preserveAspectRatio="xMidYMid meet" version="1.0"><defs><g/><clipPath id="9bbc88f8ea"><path d="M 1.632812 6.199219 L 18.285156 6.199219 L 18.285156 22.828125 L 1.632812 22.828125 Z M 1.632812 6.199219 " clip-rule="nonzero"/></clipPath><clipPath id="d5e010e3f0"><path d="M 1.644531 13.757812 L 14.503906 13.757812 L 14.503906 22.839844 L 1.644531 22.839844 Z M 1.644531 13.757812 " clip-rule="nonzero"/></clipPath><clipPath id="7161571f0d"><path d="M 5 6.1875 L 18.40625 6.1875 L 18.40625 16 L 5 16 Z M 5 6.1875 " clip-rule="nonzero"/></clipPath></defs><g fill="#ffffff" fill-opacity="1"><g transform="translate(20.524114, 21.699936)"><g><path d="M 4 0 C 3 0 2.191406 -0.300781 1.578125 -0.90625 C 0.960938 -1.507812 0.65625 -2.28125 0.65625 -3.21875 C 0.65625 -3.664062 0.742188 -4.097656 0.921875 -4.515625 C 1.109375 -4.929688 1.410156 -5.320312 1.828125 -5.6875 L 8.109375 -11.296875 C 8.140625 -11.316406 8.164062 -11.34375 8.1875 -11.375 C 8.207031 -11.414062 8.21875 -11.457031 8.21875 -11.5 C 8.21875 -11.550781 8.195312 -11.601562 8.15625 -11.65625 C 8.125 -11.707031 8.082031 -11.742188 8.03125 -11.765625 C 7.988281 -11.796875 7.9375 -11.8125 7.875 -11.8125 L 1.015625 -11.8125 L 1.015625 -14.75 L 8.65625 -14.75 C 9.332031 -14.75 9.914062 -14.609375 10.40625 -14.328125 C 10.90625 -14.054688 11.296875 -13.675781 11.578125 -13.1875 C 11.859375 -12.707031 12 -12.148438 12 -11.515625 C 12 -11.066406 11.910156 -10.632812 11.734375 -10.21875 C 11.566406 -9.8125 11.289062 -9.4375 10.90625 -9.09375 L 4.546875 -3.46875 C 4.535156 -3.457031 4.519531 -3.4375 4.5 -3.40625 C 4.476562 -3.382812 4.460938 -3.363281 4.453125 -3.34375 C 4.441406 -3.320312 4.4375 -3.289062 4.4375 -3.25 C 4.4375 -3.1875 4.453125 -3.128906 4.484375 -3.078125 C 4.515625 -3.035156 4.554688 -3 4.609375 -2.96875 C 4.671875 -2.9375 4.734375 -2.921875 4.796875 -2.921875 L 12.109375 -2.921875 L 12.109375 0 Z M 4 0 "/></g></g></g><g fill="#ffffff" fill-opacity="1"><g transform="translate(32.781908, 21.699936)"><g><path d="M 5.21875 0 C 4.394531 0 3.644531 -0.191406 2.96875 -0.578125 C 2.289062 -0.960938 1.753906 -1.484375 1.359375 -2.140625 C 0.960938 -2.796875 0.765625 -3.535156 0.765625 -4.359375 C 0.765625 -4.972656 0.898438 -5.550781 1.171875 -6.09375 C 1.441406 -6.632812 1.8125 -7.101562 2.28125 -7.5 C 1.820312 -7.875 1.460938 -8.320312 1.203125 -8.84375 C 0.953125 -9.363281 0.828125 -9.910156 0.828125 -10.484375 C 0.828125 -11.296875 1.019531 -12.019531 1.40625 -12.65625 C 1.800781 -13.300781 2.328125 -13.8125 2.984375 -14.1875 C 3.648438 -14.5625 4.382812 -14.75 5.1875 -14.75 L 11.390625 -14.75 L 11.390625 -11.796875 L 5.734375 -11.796875 C 5.460938 -11.796875 5.210938 -11.734375 4.984375 -11.609375 C 4.765625 -11.484375 4.585938 -11.3125 4.453125 -11.09375 C 4.316406 -10.882812 4.25 -10.640625 4.25 -10.359375 C 4.25 -10.097656 4.316406 -9.859375 4.453125 -9.640625 C 4.585938 -9.421875 4.765625 -9.25 4.984375 -9.125 C 5.210938 -9.007812 5.460938 -8.953125 5.734375 -8.953125 L 10.671875 -8.953125 L 10.671875 -6 L 5.828125 -6 C 5.535156 -6 5.269531 -5.925781 5.03125 -5.78125 C 4.789062 -5.644531 4.597656 -5.460938 4.453125 -5.234375 C 4.316406 -5.015625 4.25 -4.757812 4.25 -4.46875 C 4.25 -4.1875 4.316406 -3.925781 4.453125 -3.6875 C 4.597656 -3.457031 4.789062 -3.28125 5.03125 -3.15625 C 5.269531 -3.03125 5.535156 -2.96875 5.828125 -2.96875 L 11.390625 -2.96875 L 11.390625 0 Z M 5.21875 0 "/></g></g></g><g fill="#ffffff" fill-opacity="1"><g transform="translate(44.492099, 21.699936)"><g><path d="M 11.671875 0.25 C 10.785156 0.25 9.988281 0.0546875 9.28125 -0.328125 C 8.582031 -0.710938 8.03125 -1.25 7.625 -1.9375 C 7.21875 -2.625 7.015625 -3.40625 7.015625 -4.28125 L 7.015625 -10.71875 C 7.015625 -10.945312 6.957031 -11.148438 6.84375 -11.328125 C 6.726562 -11.515625 6.578125 -11.660156 6.390625 -11.765625 C 6.210938 -11.878906 6.015625 -11.9375 5.796875 -11.9375 C 5.566406 -11.9375 5.359375 -11.878906 5.171875 -11.765625 C 4.992188 -11.660156 4.851562 -11.515625 4.75 -11.328125 C 4.644531 -11.148438 4.59375 -10.945312 4.59375 -10.71875 L 4.59375 0 L 1.140625 0 L 1.140625 -10.46875 C 1.140625 -11.351562 1.335938 -12.128906 1.734375 -12.796875 C 2.140625 -13.472656 2.695312 -14.007812 3.40625 -14.40625 C 4.113281 -14.800781 4.910156 -15 5.796875 -15 C 6.691406 -15 7.488281 -14.800781 8.1875 -14.40625 C 8.894531 -14.007812 9.453125 -13.472656 9.859375 -12.796875 C 10.265625 -12.128906 10.46875 -11.351562 10.46875 -10.46875 L 10.46875 -4.015625 C 10.46875 -3.796875 10.523438 -3.59375 10.640625 -3.40625 C 10.753906 -3.21875 10.894531 -3.066406 11.0625 -2.953125 C 11.238281 -2.847656 11.429688 -2.796875 11.640625 -2.796875 C 11.867188 -2.796875 12.078125 -2.847656 12.265625 -2.953125 C 12.453125 -3.066406 12.601562 -3.21875 12.71875 -3.40625 C 12.832031 -3.59375 12.890625 -3.796875 12.890625 -4.015625 L 12.890625 -14.75 L 16.328125 -14.75 L 16.328125 -4.28125 C 16.328125 -3.40625 16.125 -2.625 15.71875 -1.9375 C 15.3125 -1.25 14.753906 -0.710938 14.046875 -0.328125 C 13.347656 0.0546875 12.554688 0.25 11.671875 0.25 Z M 11.671875 0.25 "/></g></g></g><g fill="#ffffff" fill-opacity="1"><g transform="translate(61.467703, 21.699936)"><g><path d="M 8.875 0 C 7.96875 0 7.171875 -0.195312 6.484375 -0.59375 C 5.804688 -1 5.273438 -1.535156 4.890625 -2.203125 C 4.503906 -2.878906 4.3125 -3.632812 4.3125 -4.46875 L 4.3125 -11.796875 L 0.3125 -11.796875 L 0.3125 -14.75 L 11.84375 -14.75 L 11.84375 -11.796875 L 7.859375 -11.796875 L 7.859375 -4.15625 C 7.859375 -3.832031 7.96875 -3.550781 8.1875 -3.3125 C 8.414062 -3.070312 8.695312 -2.953125 9.03125 -2.953125 L 10.1875 -2.953125 L 10.1875 0 Z M 8.875 0 "/></g></g></g><g fill="#ffffff" fill-opacity="1"><g transform="translate(73.114711, 21.699936)"><g><path d="M 1.28125 0 L 1.28125 -14.75 L 8.03125 -14.75 C 9.019531 -14.75 9.925781 -14.53125 10.75 -14.09375 C 11.570312 -13.65625 12.222656 -13.050781 12.703125 -12.28125 C 13.191406 -11.507812 13.4375 -10.617188 13.4375 -9.609375 C 13.4375 -8.660156 13.210938 -7.8125 12.765625 -7.0625 C 12.316406 -6.3125 11.726562 -5.707031 11 -5.25 L 12.171875 -3.25 C 12.242188 -3.144531 12.320312 -3.0625 12.40625 -3 C 12.5 -2.945312 12.625 -2.921875 12.78125 -2.921875 L 14.09375 -2.921875 L 14.09375 0 L 12.03125 0 C 11.394531 0 10.816406 -0.148438 10.296875 -0.453125 C 9.773438 -0.753906 9.367188 -1.148438 9.078125 -1.640625 L 7.5 -4.4375 C 7.394531 -4.4375 7.289062 -4.4375 7.1875 -4.4375 C 7.082031 -4.4375 6.972656 -4.4375 6.859375 -4.4375 L 4.828125 -4.4375 L 4.828125 0 Z M 4.828125 -7.375 L 7.625 -7.375 C 8.03125 -7.375 8.40625 -7.460938 8.75 -7.640625 C 9.101562 -7.816406 9.382812 -8.066406 9.59375 -8.390625 C 9.800781 -8.722656 9.90625 -9.117188 9.90625 -9.578125 C 9.90625 -10.046875 9.796875 -10.441406 9.578125 -10.765625 C 9.367188 -11.097656 9.09375 -11.351562 8.75 -11.53125 C 8.40625 -11.707031 8.03125 -11.796875 7.625 -11.796875 L 4.828125 -11.796875 Z M 4.828125 -7.375 "/></g></g></g><g fill="#ffffff" fill-opacity="1"><g transform="translate(87.015315, 21.699936)"><g><path d="M 5.671875 0 L 5.671875 -4.015625 C 4.765625 -4.234375 3.976562 -4.601562 3.3125 -5.125 C 2.644531 -5.65625 2.128906 -6.320312 1.765625 -7.125 C 1.398438 -7.9375 1.21875 -8.867188 1.21875 -9.921875 L 1.21875 -14.75 L 4.671875 -14.75 L 4.671875 -9.734375 C 4.671875 -9.203125 4.78125 -8.710938 5 -8.265625 C 5.226562 -7.828125 5.550781 -7.476562 5.96875 -7.21875 C 6.382812 -6.957031 6.875 -6.828125 7.4375 -6.828125 C 8 -6.828125 8.484375 -6.957031 8.890625 -7.21875 C 9.304688 -7.476562 9.625 -7.828125 9.84375 -8.265625 C 10.070312 -8.710938 10.1875 -9.203125 10.1875 -9.734375 L 10.1875 -14.75 L 13.65625 -14.75 L 13.65625 -9.921875 C 13.65625 -8.867188 13.46875 -7.9375 13.09375 -7.125 C 12.726562 -6.320312 12.207031 -5.648438 11.53125 -5.109375 C 10.863281 -4.578125 10.082031 -4.210938 9.1875 -4.015625 L 9.1875 0 Z M 5.671875 0 "/></g></g></g><g clip-path="url(#9bbc88f8ea)"><path fill="#008037" d="M 18.285156 14.515625 C 18.285156 14.710938 18.28125 14.90625 18.273438 15.101562 C 18.136719 18 16.984375 20.714844 14.988281 22.828125 L 12.765625 22.828125 C 15.214844 20.882812 16.785156 17.878906 16.785156 14.515625 C 16.785156 12.839844 15.421875 11.476562 13.75 11.476562 C 12.074219 11.476562 10.710938 12.839844 10.710938 14.515625 C 10.710938 17.015625 8.675781 19.054688 6.171875 19.054688 C 3.789062 19.054688 1.832031 17.207031 1.648438 14.871094 C 1.636719 14.753906 1.632812 14.636719 1.632812 14.515625 C 1.632812 14.316406 1.636719 14.121094 1.648438 13.925781 C 1.785156 11.027344 2.9375 8.316406 4.933594 6.203125 L 7.15625 6.203125 C 4.707031 8.148438 3.132812 11.152344 3.132812 14.515625 C 3.132812 16.191406 4.496094 17.554688 6.171875 17.554688 C 7.847656 17.554688 9.210938 16.191406 9.210938 14.515625 C 9.210938 12.011719 11.246094 9.976562 13.75 9.976562 C 16.128906 9.976562 18.089844 11.820312 18.273438 14.15625 C 18.28125 14.277344 18.285156 14.394531 18.285156 14.515625 " fill-opacity="1" fill-rule="nonzero"/></g><g clip-path="url(#d5e010e3f0)"><path fill="#008037" d="M 14.5 14.515625 C 14.5 16.742188 13.632812 18.832031 12.058594 20.402344 C 10.601562 21.859375 8.699219 22.710938 6.65625 22.828125 C 6.496094 22.835938 6.332031 22.839844 6.171875 22.839844 C 6.007812 22.839844 5.847656 22.835938 5.6875 22.828125 C 4.234375 22.746094 2.851562 22.289062 1.648438 21.511719 L 1.648438 19.621094 C 2.851562 20.691406 4.4375 21.339844 6.171875 21.339844 C 9.9375 21.339844 13 18.277344 13 14.515625 C 13 14.101562 13.332031 13.765625 13.75 13.765625 C 14.164062 13.765625 14.5 14.101562 14.5 14.515625 " fill-opacity="1" fill-rule="nonzero"/></g><g clip-path="url(#7161571f0d)"><path fill="#008037" d="M 18.273438 7.519531 L 18.273438 9.40625 C 17.066406 8.339844 15.480469 7.6875 13.75 7.6875 C 9.984375 7.6875 6.921875 10.75 6.921875 14.515625 C 6.921875 14.929688 6.585938 15.265625 6.171875 15.265625 C 5.757812 15.265625 5.421875 14.929688 5.421875 14.515625 C 5.421875 12.289062 6.289062 10.199219 7.859375 8.625 C 9.316406 7.167969 11.21875 6.320312 13.265625 6.203125 C 13.425781 6.191406 13.585938 6.1875 13.75 6.1875 C 13.910156 6.1875 14.070312 6.191406 14.234375 6.203125 C 15.6875 6.285156 17.070312 6.738281 18.273438 7.519531 " fill-opacity="1" fill-rule="nonzero"/></g></svg>